<svg xmlns="http://www.w3.org/2000/svg" viewBox="0 0 640 400"><defs><linearGradient id="b" x2="1" y2="1"><stop stop-color="#081323"/><stop offset="1" stop-color="#183d4e"/></linearGradient><linearGradient id="t" x2="1" y2="1"><stop stop-color="#205862"/><stop offset="1" stop-color="#10313f"/></linearGradient></defs><path fill="url(#b)" d="M0 0h640v400H0z"/><g fill="#b8e0e7" opacity=".6"><circle cx="45" cy="50" r="2"/><circle cx="584" cy="69" r="2"/><circle cx="602" cy="337" r="1.5"/><circle cx="50" cy="339" r="2"/></g><rect x="101" y="56" width="438" height="285" rx="29" fill="#071421" stroke="#597c8d" stroke-width="5"/><rect x="119" y="75" width="403" height="247" rx="14" fill="url(#t)" stroke="#4d8c91" stroke-width="3"/><g fill="#030b15" stroke="#6d9d9f" stroke-width="2"><circle cx="126" cy="83" r="18"/><circle cx="514" cy="83" r="18"/><circle cx="126" cy="312" r="18"/><circle cx="514" cy="312" r="18"/><circle cx="320" cy="83" r="18"/><circle cx="320" cy="312" r="18"/></g><path d="m356 252-122-103" fill="none" stroke="#c6fff2" stroke-dasharray="7 9" stroke-width="2"/><circle cx="356" cy="252" r="14" fill="#e5f7ff"/><circle cx="234" cy="149" r="14" fill="#72e4d1"/><circle cx="422" cy="165" r="14" fill="#ffc777"/><circle cx="230" cy="250" r="14" fill="#bda4f7"/></svg>