<svg xmlns="http://www.w3.org/2000/svg" viewBox="0 0 640 400" role="img" aria-label="River Dash, orbital crossings">
<defs><linearGradient id="space" x2="1" y2="1"><stop stop-color="#152c49"/><stop offset="1" stop-color="#071421"/></linearGradient></defs>
<rect width="640" height="400" rx="32" fill="url(#space)"/>
<g fill="#88c1d7" opacity=".35"><circle cx="53" cy="33" r="2"/><circle cx="545" cy="28" r="2"/><circle cx="476" cy="80" r="1.5"/><circle cx="155" cy="43" r="1.5"/></g>
<path d="M35 94H605M35 158H605M35 222H605M35 286H605" stroke="#6aafcf" stroke-opacity=".24"/>
<g fill="#285b79" stroke="#8de7e4" stroke-width="3"><rect x="48" y="99" width="161" height="41" rx="9"/><rect x="260" y="99" width="177" height="41" rx="9"/><rect x="490" y="99" width="115" height="41" rx="9"/><rect x="99" y="164" width="172" height="41" rx="9"/><rect x="350" y="164" width="184" height="41" rx="9"/></g>
<g fill="#ba738e" stroke="#ffd6d8" stroke-width="2"><rect x="80" y="230" width="72" height="41" rx="8"/><rect x="286" y="230" width="79" height="41" rx="8"/><rect x="494" y="230" width="65" height="41" rx="8"/></g>
<g fill="#b7fff1"><path d="M321 143l-20 33 20-6 20 6z"/><path d="M60 57h40v4H60M155 57h40v4h-40M250 57h40v4h-40M345 57h40v4h-40M440 57h40v4h-40M535 57h40v4h-40" opacity=".6"/></g>
<text x="42" y="362" font-family="system-ui,sans-serif" font-size="44" font-weight="900" fill="#f0fffa">RIVER DASH</text><text x="598" y="357" text-anchor="end" font-family="system-ui,sans-serif" font-size="13" letter-spacing="2" fill="#9bd9e3">ORBITAL FLOW</text>
</svg>
